<svg width="32" height="32" viewBox="0 0 32 32" fill="none" xmlns="http://www.w3.org/2000/svg">
<g clip-path="url(#clip0_137_3051)">
<path d="M16 0.5C11.363 0.5 5.40022 0.614578 2.5601 3.84C0.155755 6.57052 0.499981 12.0745 0.499981 16C0.499981 24.5625 7.43748 31.5 16 31.5C24.5625 31.5 31.5 24.5625 31.5 16C31.5 12.0745 31.8443 6.57052 29.44 3.84C26.5999 0.614578 20.637 0.5 16 0.5ZM21 11C22.1062 11 23 11.8937 23 13C23 14.1062 22.1062 15 21 15C19.8937 15 19 14.1062 19 13C19 11.8937 19.8937 11 21 11ZM11 11C12.1062 11 13 11.8937 13 13C13 14.1062 12.1062 15 11 15C9.89373 15 8.99998 14.1062 8.99998 13C8.99998 11.8937 9.89373 11 11 11ZM23.175 21.6375C21.3937 23.775 18.7812 25 16 25C13.2187 25 10.6062 23.775 8.82498 21.6375C7.97498 20.6187 9.51248 19.3438 10.3625 20.3563C11.7625 22.0375 13.8125 22.9937 16 22.9937C18.1875 22.9937 20.2375 22.0313 21.6375 20.3563C22.475 19.3438 24.0187 20.6187 23.175 21.6375Z" fill="black"/>
</g>
<defs>
<clipPath id="clip0_137_3051">
<rect width="32" height="32" fill="white"/>
</clipPath>
</defs>
</svg>
