<svg width="32" height="32" viewBox="0 0 32 32" fill="none" xmlns="http://www.w3.org/2000/svg">
<path d="M23.762 18.9291C24.2249 18.049 24.8544 16.8523 25.4839 13.725C26.6538 7.26756 22.9081 3.49898 18.4475 2.4892C18.4475 -0.827116 13.5526 -0.827116 13.5526 2.47352C9.14829 3.45122 5.53017 7.17882 6.82208 13.725C7.37426 16.1555 7.86705 17.3812 8.2403 18.3095C8.68792 19.4229 8.96361 20.1086 8.96361 21.9318C8.96361 23.6379 7.60935 23.682 6.44555 23.7198C5.33112 23.7561 4.39134 23.7867 4.98258 25.2655C4.98499 25.2716 4.98789 25.2776 4.99129 25.2832C6.85223 28.3122 25.1479 28.3122 27.0088 25.2832C27.0122 25.2776 27.0151 25.2716 27.0175 25.2655C27.6088 23.7867 26.669 23.7561 25.5546 23.7198C24.3908 23.682 23.0365 23.6379 23.0365 21.9318C23.0365 20.3083 23.325 19.7598 23.762 18.9291Z" fill="black"/>
<path d="M19.6712 28.3525C19.6712 30.367 18.0276 32 16.0001 32C13.9725 32 12.3289 30.367 12.3289 28.3525C15.5412 29.2644 16.459 29.2644 19.6712 28.3525Z" fill="black"/>
</svg>
