<svg width="32" height="32" viewBox="0 0 32 32" fill="none" xmlns="http://www.w3.org/2000/svg">
<path d="M16.0001 8.53333C18.3565 8.53333 20.2667 6.62308 20.2667 4.26667C20.2667 1.91025 18.3565 0 16.0001 0C13.6437 0 11.7334 1.91025 11.7334 4.26667C11.7334 6.62308 13.6437 8.53333 16.0001 8.53333Z" fill="#120101"/>
<path d="M19.2001 16C19.2001 17.7673 17.7674 19.2 16.0001 19.2C14.2328 19.2 12.8001 17.7673 12.8001 16C12.8001 14.2327 14.2328 12.8 16.0001 12.8C17.7674 12.8 19.2001 14.2327 19.2001 16Z" fill="#120101"/>
<path d="M20.2667 27.7333C20.2667 30.0897 18.3565 32 16.0001 32C13.6437 32 11.7334 30.0897 11.7334 27.7333C11.7334 25.3769 13.6437 23.4667 16.0001 23.4667C18.3565 23.4667 20.2667 25.3769 20.2667 27.7333Z" fill="#120101"/>
</svg>
