<svg width="32" height="32" viewBox="0 0 32 32" fill="none" xmlns="http://www.w3.org/2000/svg">
<g clip-path="url(#clip0_19_380)">
<path d="M1.87587 20.1851C4.0823 21.6179 5.52894 23.1919 8.13622 26.3994C8.19369 26.4702 8.30205 26.4569 8.34432 26.3749C8.67979 25.7243 9.01038 25.0911 9.33659 24.4748C9.70263 23.7832 10.0631 23.1128 10.4188 22.4629C16.7819 10.8351 21.5958 5.73777 28.789 2.48665C31.831 0.882658 32.9717 3.68966 31.0705 4.49165C24.3502 7.7131 16.9656 14.5236 11.7005 23.342C11.3557 23.9195 11.0199 24.5057 10.6941 25.1C9.84207 26.654 9.05756 28.2637 8.35453 29.9214C8.31267 30.0201 8.18281 30.0273 8.12992 29.9348C5.68614 25.6604 4.02435 23.6224 0.0875453 22.2055C-0.00168475 22.1734 -0.0300028 22.0518 0.0369186 21.9812L1.72199 20.2042C1.76295 20.161 1.82664 20.1531 1.87587 20.1851Z" fill="black"/>
<path d="M8.46552 22.2883C10.1893 23.414 11.3195 24.6508 13.3564 27.171C13.4013 27.2265 13.486 27.2161 13.519 27.1517C13.7811 26.6405 14.0394 26.143 14.2942 25.6588C14.5802 25.1154 14.8618 24.5887 15.1397 24.078C20.1108 14.9418 23.8717 10.9368 29.4914 8.38236C31.868 7.12209 32.7592 9.32759 31.2738 9.95773C26.0236 12.4889 20.2544 17.84 16.141 24.7687C15.8716 25.2225 15.6093 25.6831 15.3547 26.15C14.6891 27.371 14.0762 28.6358 13.527 29.9382C13.4943 30.0158 13.3928 30.0214 13.3515 29.9488C11.4423 26.5903 10.144 24.989 7.06839 23.8757C6.99868 23.8505 6.97656 23.755 7.02884 23.6995L8.3453 22.3033C8.37731 22.2693 8.42706 22.2632 8.46552 22.2883Z" fill="black"/>
</g>
<defs>
<clipPath id="clip0_19_380">
<rect width="32" height="32" fill="white"/>
</clipPath>
</defs>
</svg>
