<svg width="32" height="32" viewBox="0 0 32 32" fill="none" xmlns="http://www.w3.org/2000/svg">
<g clip-path="url(#clip0_117_1707)">
<path fill-rule="evenodd" clip-rule="evenodd" d="M17.3192 1.06667C17.3192 0.63524 17.0555 0.246295 16.651 0.0811952C16.5197 0.0276099 16.382 0.00102983 16.2453 0H16.2288C15.9499 0.00209999 15.6764 0.110361 15.4714 0.312419L0.317043 15.2458C0.105729 15.454 4.76633e-05 15.7269 0 15.9998C4.76633e-05 16.2727 0.105729 16.546 0.317043 16.7542L15.4714 31.6876C15.6764 31.8896 15.9499 31.9979 16.2287 32H16.2453C16.3821 31.999 16.5198 31.9724 16.651 31.9188C17.0555 31.7537 17.3192 31.3648 17.3192 30.9333L17.3192 26.6667L17.3192 26.6633C17.3149 25.3066 16.598 24.2521 15.6498 23.4213C14.7193 22.606 13.4636 21.9132 12.1393 21.2604C11.4827 20.9368 10.8021 20.6187 10.1102 20.2952C8.85265 19.7074 7.55753 19.1021 6.30078 18.4142C10.8984 18.3016 14.991 19.0167 18.5736 19.6428L18.5744 19.6429C19.009 19.7189 19.4361 19.7935 19.8557 19.8652C22.1561 20.2582 24.3049 20.5757 26.1691 20.4628C28.0664 20.3479 29.7778 19.7809 31.0981 18.3303C31.7356 17.6869 32 16.8017 32 16C32 15.1931 31.7322 14.3018 31.0858 13.6574C29.7029 12.2203 27.97 11.6523 26.0549 11.5371C24.178 11.4243 22.0381 11.7417 19.7529 12.135C19.3301 12.2077 18.8999 12.2835 18.4621 12.3606C14.917 12.9851 10.8782 13.6965 6.31134 13.5862C7.56009 12.9058 8.84656 12.307 10.0966 11.7251C10.7949 11.4001 11.4818 11.0803 12.1444 10.7546C13.4695 10.1032 14.7264 9.41036 15.6571 8.59172C16.6067 7.7564 17.3192 6.69643 17.3192 5.33333V1.06667Z" fill="black"/>
</g>
<defs>
<clipPath id="clip0_117_1707">
<rect width="32" height="32" fill="white"/>
</clipPath>
</defs>
</svg>
