<svg width="32" height="32" viewBox="0 0 32 32" fill="none" xmlns="http://www.w3.org/2000/svg">
<g clip-path="url(#clip0_137_2966)">
<path fill-rule="evenodd" clip-rule="evenodd" d="M28.5714 10.9792H26.8571V10.8457C26.8571 4.8375 21.9857 0.37207 16 0.37207C10.0143 0.37207 5.14286 4.8375 5.14286 10.8457V10.9792H3.42857C1.53571 10.9792 0 12.5207 0 14.4207V28.1864C0 30.0864 1.53571 31.6279 3.42857 31.6279H28.5714C30.4643 31.6279 32 30.0864 32 28.1864V14.4207C32 12.5207 30.4643 10.9792 28.5714 10.9792ZM10.8571 10.8457V10.9792C10.8745 13.4126 12.3983 15.9155 16 15.9155C19.7403 15.9155 21.1429 13.4126 21.1429 10.9792V10.8457C21.1429 7.99932 18.8357 6.1078 16 6.1078C13.1643 6.1078 10.8571 7.99932 10.8571 10.8457Z" fill="black"/>
</g>
<defs>
<clipPath id="clip0_137_2966">
<rect width="32" height="32" fill="white"/>
</clipPath>
</defs>
</svg>
