<svg width="32" height="32" viewBox="0 0 32 32" fill="none" xmlns="http://www.w3.org/2000/svg">
<path d="M16.6263 0C11.6376 0 8.40642 2.04394 5.86961 5.68913C4.81815 7.2 5.22773 9.30131 5.86967 9.78806C6.51798 10.2796 8.79993 11.4667 10.9677 9.52881C12.5332 7.5675 13.8666 4.53333 17.3789 4.53333C20.8912 4.53333 22.6666 5.97439 22.6666 8.53333C22.6666 11.3955 20.5333 11.4667 17.3789 12.7379C15.165 13.9792 12.2352 15.5239 12.2352 19.3883V20C12.2352 20.8284 12.4454 21.181 13.3333 21.8667C14.9333 22.9333 17.0666 22.9333 18.6666 21.8667C19.5385 21.2175 19.7647 20.8284 19.7647 20V19.6392C19.7647 16.9604 27.5939 16.8489 27.5939 9.6C27.594 4.141 21.9314 0 16.6263 0ZM16 23.3412C13.6127 23.3412 11.6705 25.2834 11.6705 27.6706C11.6705 30.0578 13.6127 32 16 32C18.3872 32 20.3294 30.0578 20.3294 27.6706C20.3294 25.2833 18.3872 23.3412 16 23.3412Z" fill="black"/>
</svg>
