<svg width="32" height="32" viewBox="0 0 32 32" fill="none" xmlns="http://www.w3.org/2000/svg">
<g clip-path="url(#clip0_188_1529)">
<path d="M16 0.5C7.4375 0.5 0.5 7.4375 0.5 16C0.5 24.5625 7.4375 31.5 16 31.5C24.5625 31.5 31.5 24.5625 31.5 16C31.5 7.4375 24.5625 0.5 16 0.5ZM21 11C22.1063 11 23 11.8937 23 13C23 14.1063 22.1063 15 21 15C19.8937 15 19 14.1063 19 13C19 11.8937 19.8937 11 21 11ZM11 11C12.1063 11 13 11.8937 13 13C13 14.1063 12.1063 15 11 15C9.89375 15 9 14.1063 9 13C9 11.8937 9.89375 11 11 11ZM23.175 21.6375C21.3937 23.775 18.7812 25 16 25C13.2188 25 10.6062 23.775 8.825 21.6375C7.975 20.6188 9.5125 19.3438 10.3625 20.3563C11.7625 22.0375 13.8125 22.9937 16 22.9937C18.1875 22.9937 20.2375 22.0313 21.6375 20.3563C22.475 19.3438 24.0187 20.6188 23.175 21.6375Z" fill="black"/>
</g>
<defs>
<clipPath id="clip0_188_1529">
<rect width="32" height="32" fill="white"/>
</clipPath>
</defs>
</svg>
