<svg width="200" height="200" viewBox="0 0 200 200" fill="none" xmlns="http://www.w3.org/2000/svg">
<g clip-path="url(#clip0_52_190)">
<path fill-rule="evenodd" clip-rule="evenodd" d="M101.524 85.0264C100.581 84.4818 99.4189 84.4818 98.4756 85.0264L51.3583 112.23C50.415 112.774 49.8339 113.781 49.8339 114.87V169.276C49.8339 170.366 50.415 171.372 51.3583 171.917L98.4756 199.12C99.4189 199.664 100.581 199.664 101.524 199.12L148.642 171.917C149.585 171.372 150.166 170.366 150.166 169.276V114.87C150.166 113.781 149.585 112.774 148.642 112.23L101.524 85.0264ZM92.9965 97.843C92.0488 97.2917 90.8781 97.2917 89.9304 97.843L58.127 116.344C57.1885 116.89 56.6112 117.894 56.6112 118.979V156.021C56.6112 157.106 57.1885 158.11 58.127 158.656L89.9304 177.157C90.8781 177.708 92.0488 177.708 92.9965 177.157L124.8 158.656C125.738 158.11 126.316 157.106 126.316 156.021V118.979C126.316 117.894 125.738 116.89 124.8 116.344L92.9965 97.843Z" fill="#680F31"/>
<path fill-rule="evenodd" clip-rule="evenodd" d="M151.226 0.888272C150.279 0.339 149.111 0.339 148.165 0.888272L101.311 28.0822C100.372 28.6277 99.7931 29.6322 99.7931 30.719V85.1347C99.7931 86.2214 100.372 87.226 101.311 87.7715L148.165 114.965C149.111 115.515 150.279 115.515 151.226 114.965L198.079 87.7715C199.019 87.226 199.597 86.2214 199.597 85.1347V30.719C199.597 29.6323 199.019 28.6277 198.079 28.0822L151.226 0.888272ZM150.593 38.6621C149.658 38.1306 148.513 38.1306 147.578 38.6621L132.937 46.9891C131.984 47.5311 131.395 48.543 131.395 49.6393V66.2144C131.395 67.3107 131.984 68.3226 132.937 68.8645L147.578 77.1916C148.513 77.7231 149.658 77.7231 150.593 77.1916L165.234 68.8645C166.187 68.3226 166.776 67.3107 166.776 66.2144V49.6393C166.776 48.543 166.187 47.5311 165.234 46.9891L150.593 38.6621Z" fill="#680F31"/>
<path fill-rule="evenodd" clip-rule="evenodd" d="M51.8353 0.888272C50.889 0.339 49.7208 0.339 48.7745 0.888272L1.92119 28.0822C0.981293 28.6277 0.402832 29.6322 0.402832 30.719V85.1347C0.402832 86.2214 0.981291 87.226 1.92118 87.7715L48.7745 114.965C49.7208 115.515 50.889 115.515 51.8353 114.965L98.6886 87.7715C99.6285 87.226 100.207 86.2214 100.207 85.1347V30.719C100.207 29.6323 99.6285 28.6277 98.6886 28.0822L51.8353 0.888272ZM63.7085 38.6702C62.7708 38.1341 61.6195 38.1341 60.6818 38.6702L36.2712 52.6281C35.3217 53.1711 34.7358 54.181 34.7358 55.2748V83.1398C34.7358 84.2336 35.3217 85.2436 36.2712 85.7865L60.6818 99.7444C61.6195 100.281 62.7708 100.281 63.7085 99.7444L88.1191 85.7865C89.0686 85.2436 89.6545 84.2336 89.6545 83.1398V55.2748C89.6545 54.181 89.0686 53.1711 88.1191 52.6281L63.7085 38.6702Z" fill="#680F31"/>
</g>
<defs>
<clipPath id="clip0_52_190">
<rect width="200" height="200" fill="white"/>
</clipPath>
</defs>
</svg>
