<svg width="382" height="74" viewBox="0 0 382 74" fill="none" xmlns="http://www.w3.org/2000/svg">
<g clip-path="url(#clip0_171_1129)">
<mask id="mask0_171_1129" style="mask-type:luminance" maskUnits="userSpaceOnUse" x="0" y="0" width="400" height="74">
<path d="M400 0H0V73.7357H400V0Z" fill="white"/>
</mask>
<g mask="url(#mask0_171_1129)">
<mask id="mask1_171_1129" style="mask-type:luminance" maskUnits="userSpaceOnUse" x="0" y="0" width="74" height="74">
<path d="M73.3781 0H0V73.7357H73.3781V0Z" fill="white"/>
</mask>
<g mask="url(#mask1_171_1129)">
<path fill-rule="evenodd" clip-rule="evenodd" d="M37.2483 31.3473C36.9022 31.1466 36.4758 31.1466 36.1297 31.3473L18.8429 41.3767C18.4968 41.5775 18.2836 41.9484 18.2836 42.3501V62.4085C18.2836 62.8102 18.4968 63.1812 18.8429 63.3819L36.1297 73.4113C36.4758 73.6121 36.9022 73.6121 37.2483 73.4113L54.5351 63.3819C54.8812 63.1812 55.0944 62.8102 55.0944 62.4085V42.3501C55.0944 41.9484 54.8812 41.5775 54.5351 41.3767L37.2483 31.3473ZM34.1195 36.0727C33.7718 35.8693 33.3423 35.8693 32.9946 36.0727L21.3262 42.8935C20.9819 43.0947 20.7701 43.4647 20.7701 43.8651V57.5215C20.7701 57.9219 20.9819 58.2919 21.3262 58.4931L32.9946 65.3139C33.3423 65.5173 33.7718 65.5173 34.1195 65.3139L45.7879 58.4931C46.1322 58.2919 46.3441 57.9219 46.3441 57.5215V43.8651C46.3441 43.4647 46.1322 43.0947 45.7879 42.8935L34.1195 36.0727Z" fill="#C50055"/>
<path fill-rule="evenodd" clip-rule="evenodd" d="M55.4832 0.327476C55.136 0.124972 54.7073 0.124972 54.3601 0.327476L37.1702 10.3533C36.8252 10.5544 36.6132 10.9248 36.6132 11.3254V31.3874C36.6132 31.788 36.8252 32.1584 37.1702 32.3594L54.3601 42.3852C54.7073 42.5878 55.136 42.5878 55.4832 42.3852L72.6731 32.3594C73.0181 32.1584 73.2302 31.788 73.2302 31.3874V11.3254C73.2302 10.9248 73.0181 10.5544 72.6731 10.3533L55.4832 0.327476ZM55.251 14.2539C54.908 14.0579 54.4879 14.0579 54.1449 14.2539L48.7731 17.3239C48.4235 17.5237 48.2076 17.8968 48.2076 18.3009V24.4119C48.2076 24.8161 48.4235 25.1891 48.7731 25.3889L54.1449 28.4588C54.4879 28.6549 54.908 28.6549 55.251 28.4588L60.6228 25.3889C60.9724 25.1891 61.1883 24.8161 61.1883 24.4119V18.3009C61.1883 17.8968 60.9724 17.5237 60.6228 17.3239L55.251 14.2539Z" fill="#C50055"/>
<path fill-rule="evenodd" clip-rule="evenodd" d="M19.0179 0.327476C18.6707 0.124972 18.2421 0.124972 17.8949 0.327476L0.704835 10.3533C0.359998 10.5544 0.147766 10.9248 0.147766 11.3254V31.3874C0.147766 31.788 0.359998 32.1584 0.704835 32.3594L17.8949 42.3852C18.2421 42.5878 18.6707 42.5878 19.0179 42.3852L36.2078 32.3594C36.5528 32.1584 36.7649 31.788 36.7649 31.3874V11.3254C36.7649 10.9248 36.5528 10.5544 36.2078 10.3533L19.0179 0.327476ZM23.374 14.2569C23.03 14.0592 22.6076 14.0592 22.2635 14.2569L13.3075 19.4029C12.9592 19.603 12.7442 19.9754 12.7442 20.3786V30.6518C12.7442 31.0551 12.9592 31.4274 13.3075 31.6277L22.2635 36.7737C22.6076 36.9713 23.03 36.9713 23.374 36.7737L32.33 31.6277C32.6783 31.4274 32.8933 31.0551 32.8933 30.6518V20.3786C32.8933 19.9754 32.6783 19.603 32.33 19.4029L23.374 14.2569Z" fill="#C50055"/>
</g>
<path d="M139.228 13.9603V62.7203H131.275V31.2253C131.275 29.9664 131.342 28.6063 131.476 27.1451L116.812 54.8297C116.119 56.156 115.056 56.8192 113.624 56.8192H112.349C110.917 56.8192 109.855 56.156 109.161 54.8297L94.3288 27.0439C94.396 27.7858 94.4519 28.5164 94.4966 29.2357C94.5414 29.9551 94.5637 30.6183 94.5637 31.2253V62.7203H86.6107V13.9603H93.4228C93.8255 13.9603 94.1722 13.9715 94.4631 13.994C94.7539 14.0165 95.0112 14.0727 95.2349 14.1626C95.481 14.2526 95.6935 14.3987 95.8725 14.601C96.0738 14.8033 96.264 15.0731 96.4429 15.4103L110.973 42.4879C111.353 43.2073 111.7 43.9492 112.013 44.7135C112.349 45.4778 112.673 46.2647 112.987 47.0739C113.3 46.2422 113.624 45.4441 113.96 44.6798C114.295 43.893 114.653 43.1399 115.034 42.4205L129.362 15.4103C129.541 15.0731 129.732 14.8033 129.933 14.601C130.134 14.3987 130.347 14.2526 130.57 14.1626C130.817 14.0727 131.085 14.0165 131.376 13.994C131.667 13.9715 132.013 13.9603 132.416 13.9603H139.228ZM162.726 47.9507C160.332 48.0631 158.319 48.2766 156.686 48.5914C155.053 48.8836 153.744 49.2658 152.759 49.7379C151.775 50.21 151.07 50.7607 150.645 51.3902C150.22 52.0196 150.008 52.7053 150.008 53.4471C150.008 54.9084 150.433 55.9537 151.283 56.5832C152.155 57.2126 153.285 57.5273 154.672 57.5273C156.372 57.5273 157.838 57.2239 159.068 56.6169C160.321 55.9874 161.54 55.0433 162.726 53.7843V47.9507ZM143.733 32.945C147.692 29.3032 152.457 27.4823 158.028 27.4823C160.041 27.4823 161.842 27.8195 163.431 28.4939C165.019 29.1458 166.361 30.0675 167.457 31.259C168.554 32.428 169.381 33.833 169.941 35.4741C170.522 37.1151 170.813 38.9136 170.813 40.8694V62.7203H167.055C166.272 62.7203 165.668 62.6079 165.243 62.3831C164.818 62.1358 164.482 61.6525 164.236 60.9331L163.498 58.4378C162.625 59.2246 161.775 59.9215 160.947 60.5285C160.12 61.113 159.258 61.6075 158.364 62.0122C157.469 62.4168 156.507 62.7203 155.478 62.9226C154.471 63.1474 153.352 63.2598 152.122 63.2598C150.668 63.2598 149.325 63.0688 148.095 62.6866C146.865 62.2819 145.802 61.6862 144.907 60.8994C144.012 60.1126 143.319 59.1347 142.827 57.9657C142.334 56.7967 142.088 55.4367 142.088 53.8855C142.088 53.0088 142.234 52.1433 142.525 51.289C142.815 50.4123 143.285 49.5805 143.934 48.7937C144.605 48.0069 145.466 47.265 146.518 46.5681C147.569 45.8712 148.856 45.2643 150.377 44.7472C151.921 44.2302 153.71 43.8143 155.746 43.4996C157.782 43.1624 160.108 42.96 162.726 42.8926V40.8694C162.726 38.5539 162.234 36.8454 161.249 35.7438C160.265 34.6198 158.844 34.0578 156.988 34.0578C155.645 34.0578 154.527 34.2152 153.632 34.5299C152.759 34.8446 151.988 35.2043 151.317 35.6089C150.645 35.9911 150.03 36.3396 149.471 36.6543C148.934 36.969 148.33 37.1264 147.659 37.1264C147.077 37.1264 146.585 36.9802 146.182 36.688C145.78 36.3733 145.455 36.0136 145.209 35.6089L143.733 32.945ZM186.281 63.2598C183.284 63.2598 180.979 62.4168 179.369 60.7308C177.78 59.0223 176.986 56.6731 176.986 53.6832V34.3613H173.463C173.015 34.3613 172.635 34.2152 172.322 33.9229C172.008 33.6307 171.852 33.1923 171.852 32.6078V29.3032L177.389 28.3927L179.134 18.951C179.246 18.5014 179.458 18.1529 179.771 17.9056C180.085 17.6583 180.487 17.5347 180.979 17.5347H185.275V28.4264H194.469V34.3613H185.275V53.1099C185.275 54.189 185.532 55.032 186.047 55.639C186.583 56.246 187.31 56.5494 188.228 56.5494C188.742 56.5494 189.167 56.4932 189.503 56.3808C189.861 56.246 190.163 56.1111 190.409 55.9762C190.677 55.8413 190.912 55.7177 191.114 55.6053C191.315 55.4704 191.516 55.4029 191.718 55.4029C191.964 55.4029 192.165 55.4704 192.322 55.6053C192.478 55.7177 192.646 55.8975 192.825 56.1448L195.308 60.1913C194.1 61.2029 192.713 61.9672 191.147 62.4843C189.581 63.0013 187.959 63.2598 186.281 63.2598ZM218.339 41.4426C218.339 40.3635 218.183 39.3519 217.87 38.4078C217.579 37.4411 217.131 36.5981 216.527 35.8787C215.923 35.1593 215.151 34.5973 214.212 34.1927C213.295 33.7655 212.221 33.552 210.99 33.552C208.597 33.552 206.706 34.2376 205.319 35.6089C203.955 36.9802 203.082 38.9248 202.702 41.4426H218.339ZM202.534 46.467C202.668 48.2429 202.981 49.7828 203.474 51.0867C203.966 52.3681 204.615 53.4359 205.42 54.2902C206.225 55.1219 207.176 55.7514 208.272 56.1785C209.391 56.5832 210.621 56.7855 211.964 56.7855C213.306 56.7855 214.458 56.6281 215.42 56.3134C216.404 55.9987 217.254 55.6502 217.97 55.2681C218.708 54.8859 219.346 54.5374 219.883 54.2227C220.442 53.908 220.979 53.7506 221.494 53.7506C222.187 53.7506 222.702 54.0092 223.037 54.5262L225.421 57.5611C224.503 58.6401 223.474 59.5506 222.333 60.2924C221.192 61.0118 219.995 61.5963 218.742 62.0459C217.512 62.473 216.248 62.7765 214.95 62.9564C213.675 63.1362 212.433 63.2261 211.225 63.2261C208.832 63.2261 206.606 62.8327 204.547 62.0459C202.489 61.2366 200.7 60.0564 199.178 58.5052C197.657 56.9316 196.46 54.9983 195.588 52.7053C194.715 50.3898 194.279 47.7146 194.279 44.6798C194.279 42.3193 194.659 40.105 195.42 38.0368C196.181 35.9461 197.266 34.1365 198.675 32.6078C200.107 31.0567 201.84 29.8315 203.876 28.9323C205.934 28.033 208.25 27.5834 210.823 27.5834C212.993 27.5834 214.995 27.9319 216.829 28.6288C218.664 29.3257 220.241 30.3485 221.561 31.6973C222.881 33.0237 223.91 34.6648 224.649 36.6206C225.409 38.5539 225.79 40.7682 225.79 43.2635C225.79 44.5224 225.655 45.3767 225.387 45.8263C225.119 46.2534 224.604 46.467 223.843 46.467H202.534ZM233.351 39.3182C232.456 39.3182 232.009 38.8461 232.009 37.9019C232.009 37.4523 232.277 36.9128 232.814 36.2833C233.396 35.6089 233.91 35.1593 234.358 34.9345C235.969 34.1702 236.931 33.788 237.244 33.788C237.378 33.788 237.445 33.833 237.445 33.9229C237.445 34.0578 236.931 34.7097 235.902 35.8787C235.812 35.9686 235.476 36.6655 234.895 37.9694C234.403 38.8686 233.888 39.3182 233.351 39.3182ZM229.324 60.9668C227.042 60.9668 225.902 59.8203 225.902 57.5273C225.902 55.8188 226.349 53.6607 227.244 51.053L226.036 52.9413C225.454 53.9305 225.051 54.425 224.828 54.425C224.738 54.425 224.693 54.3576 224.693 54.2227C224.693 53.863 224.828 53.5258 225.096 53.2111C226.17 51.7274 227.356 49.5918 228.653 46.8042C228.787 46.4445 228.966 45.9949 229.19 45.4554C229.459 44.9158 229.772 44.3089 230.13 43.6344C230.353 43.2298 230.913 43.0275 231.808 43.0275C232.568 43.0275 232.949 43.2523 232.949 43.7019C232.949 44.1965 232.725 44.8709 232.277 45.7251C231.875 46.6243 231.494 47.1414 231.136 47.2763C228.81 51.9522 227.647 55.3917 227.647 57.5948C227.647 59.0785 228.139 59.8203 229.123 59.8203C230.734 59.8203 232.501 58.6514 234.425 56.3134C236.438 53.9754 237.423 52.8064 237.378 52.8064C237.468 52.8064 237.512 52.8739 237.512 53.0088C237.512 53.0537 237.468 53.2111 237.378 53.4809C236.975 54.2002 236.461 54.9421 235.834 55.7064C235.253 56.4258 234.582 57.1901 233.821 57.9994C231.852 59.9777 230.353 60.9668 229.324 60.9668ZM236.293 63.4622C235.89 63.4622 235.689 63.1699 235.689 62.5854V62.4505C235.868 61.8211 236.047 61.0343 236.226 60.0901C236.45 59.1459 236.696 58.0444 236.964 56.7855C237.233 55.5266 237.568 53.953 237.971 52.0646C238.374 50.1313 238.866 47.9057 239.447 45.3879L238.642 43.4321C238.418 42.8476 238.239 42.4205 238.105 42.1507C238.016 41.881 237.971 41.7461 237.971 41.7461C237.971 41.4314 238.351 41.1391 239.112 40.8694C241.349 40.0151 242.781 39.588 243.407 39.588C244.078 39.588 244.414 39.7903 244.414 40.1949C244.369 40.0601 243.228 42.9376 240.991 48.8274V49.4344C240.991 50.6933 240.79 51.3227 240.387 51.3227C240.342 51.3227 240.275 51.2553 240.186 51.1204C239.828 52.2444 239.47 53.3235 239.112 54.3576C238.799 55.3467 238.508 56.3359 238.239 57.325C239.224 55.7064 240.23 54.1553 241.259 52.6716C242.333 51.1879 243.429 49.7941 244.548 48.4902C247.904 44.5786 250.678 42.6228 252.87 42.6228C253.899 42.6228 254.414 43.0275 254.414 43.8368C254.414 44.1065 254.347 44.4437 254.212 44.8484C253.855 46.3771 253.362 48.3104 252.736 50.6483C252.11 52.9413 251.371 55.6165 250.521 58.6738C253.116 56.7405 255.13 54.6723 256.561 52.4692C256.785 52.1995 256.942 52.0646 257.031 52.0646C257.166 52.0646 257.233 52.1545 257.233 52.3344C257.233 52.4243 257.166 52.5816 257.031 52.8064C255.063 56.3134 252.669 59.101 249.85 61.1692C249.671 61.4389 249.38 61.5738 248.978 61.5738C248.664 61.5738 248.508 61.394 248.508 61.0343C248.508 60.9444 248.575 60.5397 248.709 59.8203C248.843 59.056 249.022 57.9994 249.246 56.6506C249.47 55.6615 249.671 54.6948 249.85 53.7506C250.029 52.8065 250.208 51.8398 250.387 50.8507C250.7 48.6476 250.902 46.7143 250.991 45.0507C250.007 45.5003 248.933 46.2422 247.77 47.2763C246.651 48.2654 245.398 49.5243 244.011 51.053C242.758 52.4468 241.662 53.7731 240.723 55.032C239.828 56.246 239.089 57.3925 238.508 58.4715C237.881 59.6855 237.412 60.9893 237.098 62.3831C236.919 63.1025 236.651 63.4622 236.293 63.4622ZM239.85 43.567L240.454 41.3414C240.23 41.5213 239.805 41.7461 239.179 42.0159L239.85 43.567ZM301.87 13.9603V62.7203H292.81V41.4089H270.025V62.7203H260.964V13.9603H270.025V34.9345H292.81V13.9603H301.87ZM316.143 28.123V62.7203H307.821V28.123H316.143ZM317.284 18.0405C317.284 18.7599 317.139 19.4343 316.848 20.0637C316.557 20.6932 316.166 21.244 315.673 21.716C315.204 22.1881 314.644 22.5703 313.995 22.8625C313.347 23.1323 312.653 23.2672 311.915 23.2672C311.199 23.2672 310.517 23.1323 309.868 22.8625C309.242 22.5703 308.693 22.1881 308.224 21.716C307.754 21.244 307.374 20.6932 307.083 20.0637C306.814 19.4343 306.68 18.7599 306.68 18.0405C306.68 17.2986 306.814 16.6018 307.083 15.9498C307.374 15.2979 307.754 14.7359 308.224 14.2638C308.693 13.7917 309.242 13.4208 309.868 13.151C310.517 12.8588 311.199 12.7126 311.915 12.7126C312.653 12.7126 313.347 12.8588 313.995 13.151C314.644 13.4208 315.204 13.7917 315.673 14.2638C316.166 14.7359 316.557 15.2979 316.848 15.9498C317.139 16.6018 317.284 17.2986 317.284 18.0405ZM352.277 28.123L338.62 62.7203H331.103L317.445 28.123H324.291C324.917 28.123 325.432 28.2691 325.834 28.5613C326.259 28.8536 326.539 29.2245 326.673 29.6741L333.318 48.153C333.676 49.2321 333.989 50.2886 334.257 51.3227C334.526 52.3568 334.761 53.3909 334.962 54.425C335.186 53.3909 335.432 52.3568 335.7 51.3227C335.969 50.2886 336.293 49.2321 336.673 48.153L343.452 29.6741C343.608 29.2245 343.888 28.8536 344.291 28.5613C344.693 28.2691 345.174 28.123 345.734 28.123H352.277ZM374.472 41.4426C374.472 40.3635 374.315 39.3519 374.002 38.4078C373.711 37.4411 373.264 36.5981 372.66 35.8787C372.056 35.1593 371.284 34.5973 370.344 34.1927C369.427 33.7655 368.353 33.552 367.123 33.552C364.729 33.552 362.839 34.2376 361.452 35.6089C360.087 36.9802 359.215 38.9248 358.834 41.4426H374.472ZM358.667 46.467C358.801 48.2429 359.114 49.7828 359.606 51.0867C360.098 52.3681 360.747 53.4359 361.553 54.2902C362.358 55.1219 363.309 55.7514 364.405 56.1785C365.523 56.5832 366.754 56.7855 368.096 56.7855C369.438 56.7855 370.591 56.6281 371.553 56.3134C372.537 55.9987 373.387 55.6502 374.103 55.2681C374.841 54.8859 375.479 54.5374 376.016 54.2227C376.575 53.908 377.112 53.7506 377.626 53.7506C378.32 53.7506 378.834 54.0092 379.17 54.5262L381.553 57.5611C380.635 58.6401 379.606 59.5506 378.465 60.2924C377.324 61.0118 376.127 61.5963 374.875 62.0459C373.644 62.473 372.38 62.7765 371.083 62.9564C369.808 63.1362 368.566 63.2261 367.358 63.2261C364.964 63.2261 362.738 62.8327 360.68 62.0459C358.622 61.2366 356.832 60.0564 355.311 58.5052C353.79 56.9316 352.593 54.9983 351.72 52.7053C350.848 50.3898 350.412 47.7146 350.412 44.6798C350.412 42.3193 350.792 40.105 351.553 38.0368C352.313 35.9461 353.398 34.1365 354.808 32.6078C356.239 31.0567 357.973 29.8315 360.009 28.9323C362.067 28.033 364.383 27.5834 366.955 27.5834C369.125 27.5834 371.127 27.9319 372.962 28.6288C374.796 29.3257 376.374 30.3485 377.693 31.6973C379.013 33.0237 380.042 34.6648 380.781 36.6206C381.541 38.5539 381.922 40.7682 381.922 43.2635C381.922 44.5224 381.787 45.3767 381.519 45.8263C381.251 46.2534 380.736 46.467 379.975 46.467H358.667Z" fill="#C50055"/>
</g>
</g>
<defs>
<clipPath id="clip0_171_1129">
<rect width="382" height="74" fill="white"/>
</clipPath>
</defs>
</svg>
