<svg width="295" height="74" viewBox="0 0 295 74" fill="none" xmlns="http://www.w3.org/2000/svg">
<g clip-path="url(#clip0_172_1171)">
<mask id="mask0_172_1171" style="mask-type:luminance" maskUnits="userSpaceOnUse" x="-87" y="0" width="400" height="74">
<path d="M313 0H-87V73.7357H313V0Z" fill="white"/>
</mask>
<g mask="url(#mask0_172_1171)">
<path d="M52.2282 13.9603V62.7203H44.2751V31.2253C44.2751 29.9664 44.3423 28.6063 44.4765 27.1451L29.8121 54.8297C29.1186 56.156 28.0559 56.8192 26.6241 56.8192H25.349C23.9172 56.8192 22.8546 56.156 22.1611 54.8297L7.32884 27.0439C7.39595 27.7858 7.45188 28.5164 7.49662 29.2357C7.54137 29.9551 7.56374 30.6183 7.56374 31.2253V62.7203H-0.389282V13.9603H6.4228C6.82548 13.9603 7.17224 13.9715 7.46307 13.994C7.75389 14.0165 8.01117 14.0727 8.23488 14.1626C8.48097 14.2526 8.69349 14.3987 8.87246 14.601C9.0738 14.8033 9.26396 15.0731 9.44293 15.4103L23.9731 42.4879C24.3534 43.2073 24.7002 43.9492 25.0134 44.7135C25.349 45.4778 25.6734 46.2647 25.9866 47.0739C26.2998 46.2422 26.6241 45.4441 26.9597 44.6798C27.2953 43.893 27.6532 43.1399 28.0335 42.4205L42.3624 15.4103C42.5414 15.0731 42.7315 14.8033 42.9329 14.601C43.1342 14.3987 43.3467 14.2526 43.5705 14.1626C43.8165 14.0727 44.085 14.0165 44.3758 13.994C44.6666 13.9715 45.0134 13.9603 45.4161 13.9603H52.2282ZM75.7259 47.9507C73.3322 48.0631 71.3188 48.2766 69.6857 48.5914C68.0525 48.8836 66.7438 49.2658 65.7595 49.7379C64.7751 50.21 64.0704 50.7607 63.6454 51.3902C63.2203 52.0196 63.0078 52.7053 63.0078 53.4471C63.0078 54.9084 63.4329 55.9537 64.283 56.5832C65.1555 57.2126 66.2852 57.5273 67.6722 57.5273C69.3725 57.5273 70.8378 57.2239 72.0682 56.6169C73.321 55.9874 74.5402 55.0433 75.7259 53.7843V47.9507ZM56.7326 32.945C60.6924 29.3032 65.4575 27.4823 71.0279 27.4823C73.0414 27.4823 74.8422 27.8195 76.4306 28.4939C78.019 29.1458 79.3613 30.0675 80.4575 31.259C81.5537 32.428 82.3814 33.833 82.9407 35.4741C83.5223 37.1151 83.8132 38.9136 83.8132 40.8694V62.7203H80.0548C79.2718 62.7203 78.6678 62.6079 78.2427 62.3831C77.8176 62.1358 77.4821 61.6525 77.236 60.9331L76.4977 58.4378C75.6253 59.2246 74.7751 59.9215 73.9474 60.5285C73.1197 61.113 72.2584 61.6075 71.3635 62.0122C70.4687 62.4168 69.5067 62.7203 68.4776 62.9226C67.4709 63.1474 66.3523 63.2598 65.1219 63.2598C63.6678 63.2598 62.3255 63.0688 61.095 62.6866C59.8646 62.2819 58.802 61.6862 57.9071 60.8994C57.0123 60.1126 56.3188 59.1347 55.8266 57.9657C55.3344 56.7967 55.0883 55.4367 55.0883 53.8855C55.0883 53.0088 55.2338 52.1433 55.5246 51.289C55.8154 50.4123 56.2852 49.5805 56.934 48.7937C57.6051 48.0069 58.4664 47.265 59.5179 46.5681C60.5693 45.8712 61.8557 45.2643 63.3769 44.7472C64.9206 44.2302 66.7103 43.8143 68.7461 43.4996C70.7819 43.1624 73.1085 42.96 75.7259 42.8926V40.8694C75.7259 38.5539 75.2337 36.8454 74.2494 35.7438C73.2651 34.6198 71.8445 34.0578 69.9877 34.0578C68.6454 34.0578 67.5268 34.2152 66.632 34.5299C65.7595 34.8446 64.9877 35.2043 64.3165 35.6089C63.6454 35.9911 63.0302 36.3396 62.4709 36.6543C61.934 36.969 61.3299 37.1264 60.6588 37.1264C60.0771 37.1264 59.585 36.9802 59.1823 36.688C58.7796 36.3733 58.4552 36.0136 58.2092 35.6089L56.7326 32.945ZM99.2814 63.2598C96.2836 63.2598 93.9794 62.4168 92.3687 60.7308C90.7803 59.0223 89.9861 56.6731 89.9861 53.6832V34.3613H86.4626C86.0152 34.3613 85.6349 34.2152 85.3217 33.9229C85.0085 33.6307 84.8519 33.1923 84.8519 32.6078V29.3032L90.3888 28.3927L92.1338 18.951C92.2456 18.5014 92.4581 18.1529 92.7713 17.9056C93.0845 17.6583 93.4872 17.5347 93.9794 17.5347H98.2747V28.4264H107.469V34.3613H98.2747V53.1099C98.2747 54.189 98.532 55.032 99.0465 55.639C99.5834 56.246 100.31 56.5494 101.228 56.5494C101.742 56.5494 102.167 56.4932 102.503 56.3808C102.861 56.246 103.163 56.1111 103.409 55.9762C103.677 55.8413 103.912 55.7177 104.114 55.6053C104.315 55.4704 104.516 55.4029 104.718 55.4029C104.964 55.4029 105.165 55.4704 105.322 55.6053C105.478 55.7177 105.646 55.8975 105.825 56.1448L108.308 60.1913C107.1 61.2029 105.713 61.9672 104.147 62.4843C102.581 63.0013 100.959 63.2598 99.2814 63.2598ZM131.339 41.4426C131.339 40.3635 131.183 39.3519 130.87 38.4078C130.579 37.4411 130.131 36.5981 129.527 35.8787C128.923 35.1593 128.151 34.5973 127.212 34.1927C126.295 33.7655 125.221 33.552 123.99 33.552C121.597 33.552 119.706 34.2376 118.319 35.6089C116.955 36.9802 116.082 38.9248 115.702 41.4426H131.339ZM115.534 46.467C115.668 48.2429 115.981 49.7828 116.474 51.0867C116.966 52.3681 117.615 53.4359 118.42 54.2902C119.225 55.1219 120.176 55.7514 121.272 56.1785C122.391 56.5832 123.621 56.7855 124.964 56.7855C126.306 56.7855 127.458 56.6281 128.42 56.3134C129.404 55.9987 130.254 55.6502 130.97 55.2681C131.708 54.8859 132.346 54.5374 132.883 54.2227C133.442 53.908 133.979 53.7506 134.494 53.7506C135.187 53.7506 135.702 54.0092 136.037 54.5262L138.421 57.5611C137.503 58.6401 136.474 59.5506 135.333 60.2924C134.192 61.0118 132.995 61.5963 131.742 62.0459C130.512 62.473 129.248 62.7765 127.95 62.9564C126.675 63.1362 125.433 63.2261 124.225 63.2261C121.832 63.2261 119.606 62.8327 117.547 62.0459C115.489 61.2366 113.7 60.0564 112.178 58.5052C110.657 56.9316 109.46 54.9983 108.588 52.7053C107.715 50.3898 107.279 47.7146 107.279 44.6798C107.279 42.3193 107.659 40.105 108.42 38.0368C109.181 35.9461 110.266 34.1365 111.675 32.6078C113.107 31.0567 114.84 29.8315 116.876 28.9323C118.934 28.033 121.25 27.5834 123.823 27.5834C125.993 27.5834 127.995 27.9319 129.829 28.6288C131.664 29.3257 133.241 30.3485 134.561 31.6973C135.881 33.0237 136.91 34.6648 137.649 36.6206C138.409 38.5539 138.79 40.7682 138.79 43.2635C138.79 44.5224 138.655 45.3767 138.387 45.8263C138.119 46.2534 137.604 46.467 136.843 46.467H115.534ZM146.351 39.3182C145.456 39.3182 145.009 38.8461 145.009 37.9019C145.009 37.4523 145.277 36.9128 145.814 36.2833C146.396 35.6089 146.91 35.1593 147.358 34.9345C148.969 34.1702 149.931 33.788 150.244 33.788C150.378 33.788 150.445 33.833 150.445 33.9229C150.445 34.0578 149.931 34.7097 148.902 35.8787C148.812 35.9686 148.476 36.6655 147.895 37.9694C147.403 38.8686 146.888 39.3182 146.351 39.3182ZM142.324 60.9668C140.042 60.9668 138.902 59.8203 138.902 57.5273C138.902 55.8188 139.349 53.6607 140.244 51.053L139.036 52.9413C138.454 53.9305 138.051 54.425 137.828 54.425C137.738 54.425 137.693 54.3576 137.693 54.2227C137.693 53.863 137.828 53.5258 138.096 53.2111C139.17 51.7274 140.356 49.5918 141.653 46.8042C141.787 46.4445 141.966 45.9949 142.19 45.4554C142.459 44.9158 142.772 44.3089 143.13 43.6344C143.353 43.2298 143.913 43.0275 144.808 43.0275C145.568 43.0275 145.949 43.2523 145.949 43.7019C145.949 44.1965 145.725 44.8709 145.277 45.7251C144.875 46.6243 144.494 47.1414 144.136 47.2763C141.81 51.9522 140.647 55.3917 140.647 57.5948C140.647 59.0785 141.139 59.8203 142.123 59.8203C143.734 59.8203 145.501 58.6514 147.425 56.3134C149.438 53.9754 150.423 52.8064 150.378 52.8064C150.468 52.8064 150.512 52.8739 150.512 53.0088C150.512 53.0537 150.468 53.2111 150.378 53.4809C149.975 54.2002 149.461 54.9421 148.834 55.7064C148.253 56.4258 147.582 57.1901 146.821 57.9994C144.852 59.9777 143.353 60.9668 142.324 60.9668ZM149.293 63.4622C148.89 63.4622 148.689 63.1699 148.689 62.5854V62.4505C148.868 61.8211 149.047 61.0343 149.226 60.0901C149.45 59.1459 149.696 58.0444 149.964 56.7855C150.233 55.5266 150.568 53.953 150.971 52.0646C151.374 50.1313 151.866 47.9057 152.447 45.3879L151.642 43.4321C151.418 42.8476 151.239 42.4205 151.105 42.1507C151.016 41.881 150.971 41.7461 150.971 41.7461C150.971 41.4314 151.351 41.1391 152.112 40.8694C154.349 40.0151 155.781 39.588 156.407 39.588C157.078 39.588 157.414 39.7903 157.414 40.1949C157.369 40.0601 156.228 42.9376 153.991 48.8274V49.4344C153.991 50.6933 153.79 51.3227 153.387 51.3227C153.342 51.3227 153.275 51.2553 153.186 51.1204C152.828 52.2444 152.47 53.3235 152.112 54.3576C151.799 55.3467 151.508 56.3359 151.239 57.325C152.224 55.7064 153.23 54.1553 154.259 52.6716C155.333 51.1879 156.429 49.7941 157.548 48.4902C160.904 44.5786 163.678 42.6228 165.87 42.6228C166.899 42.6228 167.414 43.0275 167.414 43.8368C167.414 44.1065 167.347 44.4437 167.212 44.8484C166.855 46.3771 166.362 48.3104 165.736 50.6483C165.11 52.9413 164.371 55.6165 163.521 58.6738C166.116 56.7405 168.13 54.6723 169.561 52.4692C169.785 52.1995 169.942 52.0646 170.031 52.0646C170.166 52.0646 170.233 52.1545 170.233 52.3344C170.233 52.4243 170.166 52.5816 170.031 52.8064C168.063 56.3134 165.669 59.101 162.85 61.1692C162.671 61.4389 162.38 61.5738 161.978 61.5738C161.664 61.5738 161.508 61.394 161.508 61.0343C161.508 60.9444 161.575 60.5397 161.709 59.8203C161.843 59.056 162.022 57.9994 162.246 56.6506C162.47 55.6615 162.671 54.6948 162.85 53.7506C163.029 52.8065 163.208 51.8398 163.387 50.8507C163.7 48.6476 163.902 46.7143 163.991 45.0507C163.007 45.5003 161.933 46.2422 160.77 47.2763C159.651 48.2654 158.398 49.5243 157.011 51.053C155.758 52.4468 154.662 53.7731 153.723 55.032C152.828 56.246 152.089 57.3925 151.508 58.4715C150.881 59.6855 150.412 60.9893 150.098 62.3831C149.919 63.1025 149.651 63.4622 149.293 63.4622ZM152.85 43.567L153.454 41.3414C153.23 41.5213 152.805 41.7461 152.179 42.0159L152.85 43.567ZM214.87 13.9603V62.7203H205.81V41.4089H183.025V62.7203H173.964V13.9603H183.025V34.9345H205.81V13.9603H214.87ZM229.143 28.123V62.7203H220.821V28.123H229.143ZM230.284 18.0405C230.284 18.7599 230.139 19.4343 229.848 20.0637C229.557 20.6932 229.166 21.244 228.673 21.716C228.204 22.1881 227.644 22.5703 226.995 22.8625C226.347 23.1323 225.653 23.2672 224.915 23.2672C224.199 23.2672 223.517 23.1323 222.868 22.8625C222.242 22.5703 221.693 22.1881 221.224 21.716C220.754 21.244 220.374 20.6932 220.083 20.0637C219.814 19.4343 219.68 18.7599 219.68 18.0405C219.68 17.2986 219.814 16.6018 220.083 15.9498C220.374 15.2979 220.754 14.7359 221.224 14.2638C221.693 13.7917 222.242 13.4208 222.868 13.151C223.517 12.8588 224.199 12.7126 224.915 12.7126C225.653 12.7126 226.347 12.8588 226.995 13.151C227.644 13.4208 228.204 13.7917 228.673 14.2638C229.166 14.7359 229.557 15.2979 229.848 15.9498C230.139 16.6018 230.284 17.2986 230.284 18.0405ZM265.277 28.123L251.62 62.7203H244.103L230.445 28.123H237.291C237.917 28.123 238.432 28.2691 238.834 28.5613C239.259 28.8536 239.539 29.2245 239.673 29.6741L246.318 48.153C246.676 49.2321 246.989 50.2886 247.257 51.3227C247.526 52.3568 247.761 53.3909 247.962 54.425C248.186 53.3909 248.432 52.3568 248.7 51.3227C248.969 50.2886 249.293 49.2321 249.673 48.153L256.452 29.6741C256.608 29.2245 256.888 28.8536 257.291 28.5613C257.693 28.2691 258.174 28.123 258.734 28.123H265.277ZM287.472 41.4426C287.472 40.3635 287.315 39.3519 287.002 38.4078C286.711 37.4411 286.264 36.5981 285.66 35.8787C285.056 35.1593 284.284 34.5973 283.344 34.1927C282.427 33.7655 281.353 33.552 280.123 33.552C277.729 33.552 275.839 34.2376 274.452 35.6089C273.087 36.9802 272.215 38.9248 271.834 41.4426H287.472ZM271.667 46.467C271.801 48.2429 272.114 49.7828 272.606 51.0867C273.098 52.3681 273.747 53.4359 274.553 54.2902C275.358 55.1219 276.309 55.7514 277.405 56.1785C278.523 56.5832 279.754 56.7855 281.096 56.7855C282.438 56.7855 283.591 56.6281 284.553 56.3134C285.537 55.9987 286.387 55.6502 287.103 55.2681C287.841 54.8859 288.479 54.5374 289.016 54.2227C289.575 53.908 290.112 53.7506 290.626 53.7506C291.32 53.7506 291.834 54.0092 292.17 54.5262L294.553 57.5611C293.635 58.6401 292.606 59.5506 291.465 60.2924C290.324 61.0118 289.127 61.5963 287.875 62.0459C286.644 62.473 285.38 62.7765 284.083 62.9564C282.808 63.1362 281.566 63.2261 280.358 63.2261C277.964 63.2261 275.738 62.8327 273.68 62.0459C271.622 61.2366 269.832 60.0564 268.311 58.5052C266.79 56.9316 265.593 54.9983 264.72 52.7053C263.848 50.3898 263.412 47.7146 263.412 44.6798C263.412 42.3193 263.792 40.105 264.553 38.0368C265.313 35.9461 266.398 34.1365 267.808 32.6078C269.239 31.0567 270.973 29.8315 273.009 28.9323C275.067 28.033 277.383 27.5834 279.955 27.5834C282.125 27.5834 284.127 27.9319 285.962 28.6288C287.796 29.3257 289.374 30.3485 290.693 31.6973C292.013 33.0237 293.042 34.6648 293.781 36.6206C294.541 38.5539 294.922 40.7682 294.922 43.2635C294.922 44.5224 294.787 45.3767 294.519 45.8263C294.251 46.2534 293.736 46.467 292.975 46.467H271.667Z" fill="#C50055"/>
</g>
</g>
<defs>
<clipPath id="clip0_172_1171">
<rect width="295" height="74" fill="white"/>
</clipPath>
</defs>
</svg>
